# xmcd
#
# Track frame offsets:
#	150
#	16510
#	29510
#	45920
#	58010
#	73646
#	90830
#	108792
#	127505
#	142339
#	159180
#	175560
#	195299
#	215138
#	228344
#	245521
#	264601
#	279013
#	293023
#	310476
#
# Disc length: 4348 seconds
#
# Revision: 1
# Processed by: cddbd v1.5.2PL0 Copyright (c) Steve Scherf et al.
# Submitted via: audiograbber 1.83.01
#
DISCID=0010fa14
DTITLE=George Baker Selection - 100
DYEAR=1900
DGENRE=
TTITLE0=George Baker Selection - I'm on my way
TTITLE1=George Baker Selection - Midnight
TTITLE2=George Baker Selection - All my love
TTITLE3=George Baker Selection - Tonight
TTITLE4=George Baker Selection - Morning light
TTITLE5=George Baker Selection - Drink drink drink
TTITLE6=George Baker Selection - Nino del sol
TTITLE7=George Baker Selection - Viva America
TTITLE8=George Baker Selection - The wind 
TTITLE9=George Baker Selection - When we 're dancing
TTITLE10=George Baker Selection - Manolito
TTITLE11=George Baker Selection - Oh Magdalena
TTITLE12=George Baker Selection - Love is the sweetest rose
TTITLE13=George Baker Selection - Bella Maria
TTITLE14=George Baker Selection - Maria-Julie
TTITLE15=George Baker Selection - Love in your heart
TTITLE16=George Baker Selection - You don't love me anymore
TTITLE17=George Baker Selection - When you learn to fly
TTITLE18=George Baker Selection - Bye bye my love
TTITLE19=George Baker Selection - Canta libre
EXTD=cd 2
EXTT0=
EXTT1=
EXTT2=
EXTT3=
EXTT4=
EXTT5=
EXTT6=
EXTT7=
EXTT8=
EXTT9=
EXTT10=
EXTT11=
EXTT12=
EXTT13=
EXTT14=
EXTT15=
EXTT16=
EXTT17=
EXTT18=
EXTT19=
PLAYORDER=
